<?xml version="1.0" encoding="UTF-8"?>
<!DOCTYPE svg PUBLIC "-//W3C//DTD SVG 1.1//EN" "http://www.w3.org/Graphics/SVG/1.1/DTD/svg11.dtd">
<!-- Creator: CorelDRAW -->
<svg xmlns="http://www.w3.org/2000/svg" xml:space="preserve" width="249.631mm" height="43.5665mm" version="1.1" style="shape-rendering:geometricPrecision; text-rendering:geometricPrecision; image-rendering:optimizeQuality; fill-rule:evenodd; clip-rule:evenodd"
viewBox="0 0 39151.83 6832.93"
 xmlns:xlink="http://www.w3.org/1999/xlink"
 xmlns:xodm="http://www.corel.com/coreldraw/odm/2003">
 <defs>
  <style type="text/css">
   <![CDATA[
    .str0 {stroke:black;stroke-width:156.84;stroke-miterlimit:22.9256}
    .fil2 {fill:none}
    .fil0 {fill:black}
    .fil3 {fill:#52B42B}
    .fil1 {fill:#52B42B}
   ]]>
  </style>
 </defs>
 <g id="Layer_x0020_1">
  <metadata id="CorelCorpID_0Corel-Layer"/>
  <g id="_1364683731568">
   <path class="fil0" d="M6078.22 6183.29l1721.17 3.34 -4.33 -1610.49 967.81 -0.56c63.3,195.94 924.83,1424.22 1093.64,1605.34l1793.42 7.95c-228.15,-469.29 -1120.19,-1511.33 -1267.34,-1949.67 1070.91,-321.9 1778.4,-2278.9 444.72,-3505.12 -942.38,-866.43 -3259.21,-612.94 -4726.5,-614.79l-22.58 6064zm1717.76 -2933.74c879.93,5.79 2013.49,149.95 2017.12,-879.63 3.69,-1044.05 -1125.45,-899.96 -2013.94,-897.4l-3.18 1777.03z"/>
   <path class="fil0" d="M11785.47 6191.07l1740.05 -4.42c478.66,-1356.96 419.61,-1178.18 978.64,-1178.91l2047.66 12.59 484.93 1162.99 1771.25 2.87 -2665.64 -6060.08 -1684.47 -8.09c-548.89,1105.14 -1433.35,3223.7 -2005.45,4516.54 -174.72,394.81 -566.79,1168.31 -666.97,1556.5zm2719.09 -2459.91l1531.13 13.02 -734.37 -1885.19 -796.76 1872.17z"/>
   <path class="fil0" d="M22420.15 4281.14c44.78,425.27 -72.16,558.41 -438.04,645.3 -1153.19,273.9 -2242.09,-450.77 -2561.18,-528.38l-516.53 1230.26c914.36,794.91 3962.18,1110.19 4906.81,-258.2 316.8,-458.91 462.86,-1177.74 173.64,-1746.56 -509.48,-1001.97 -1829.9,-914.89 -2960.95,-1354.62 -831.95,-323.45 -119.86,-1285.99 1523.25,-805.81 317.71,92.85 562.96,250.5 834.56,316.91l489.67 -1231.89c-686.67,-626.42 -4032.05,-1074.54 -4744.51,745.22 -406.17,1037.44 118.35,1823.49 826.4,2153.92 939.37,438.37 1657.37,271.74 2466.89,833.85z"/>
   <polygon class="fil0" points="-0,1483.53 1861.73,1483.53 1865.49,6183.51 3586.19,6185.3 3581.34,1479.43 5434.48,1480.12 5432.77,117.08 35.54,120.08 "/>
   <polygon class="fil1" points="33704.02,1696.81 35570.8,1708.76 35577.81,6406.33 37281.84,6409.42 37292.41,1711.76 39150.59,1698.61 39151.83,362.93 33724.21,337.38 "/>
   <path class="fil2 str0" d="M26821.72 6506.85c391.99,122.96 783.98,245.92 1204.46,247.66 420.5,1.74 869.5,-117.75 1318.5,-237.23"/>
   <path class="fil0" d="M28543.12 4533.03l30.19 0c41.53,0 75.49,33.96 75.49,75.49l0 849.24c0,41.53 -33.96,75.49 -75.49,75.49l-30.19 0c-41.53,0 -75.49,-33.96 -75.49,-75.49l0 -849.24c0,-41.53 33.96,-75.49 75.49,-75.49zm-1610.31 -554.8c-173.82,8.74 -319.89,17.17 -414.13,25.66l-12.83 -83.33 -1.57 -1.24 1.1 -1.87 -16.15 -105.02c277.21,-41.94 554.44,-83.86 822.56,-117.72l14.84 -386.89 1510.24 -9.19 11.18 361.84c286.23,38.86 545.64,101.55 805.07,164.24 0,54.31 0,108.64 0,162.96 -102.6,-11.67 -257.2,-23.15 -369.47,-32.67l0 2395.91 0.53 2.05 1750.4 -1.41 -4.47 -6072.23 -1733.59 -12.08 7.97 2282.45c-493.01,0 -2012.42,60.34 -2381.71,-33.67l1.8 -2251.24 -1742.7 -0.88 0.94 6090.35 1750 1.29 0 -2377.3zm570.05 -335.54c187.42,-14.73 374.86,-29.47 568.31,-29.47 193.45,0 392.9,14.74 592.37,29.47 -1.43,-54.05 -2.84,-108.11 -4.27,-162.16 -202.35,-10.49 -404.69,-21 -595.53,-21.71 -190.83,-0.71 -370.14,8.36 -549.45,17.44 -3.81,55.47 -7.61,110.95 -11.42,166.42zm96.68 890.34l30.19 0c41.53,0 75.49,33.96 75.49,75.49l0 849.24c0,41.53 -33.96,75.49 -75.49,75.49l-30.19 0c-41.53,0 -75.49,-33.96 -75.49,-75.49l0 -849.24c0,-41.53 33.96,-75.49 75.49,-75.49z"/>
   <rect class="fil3" x="31342.14" y="308.02" width="1759.74" height="6101.36"/>
  </g>
 </g>
</svg>
