<?xml version="1.0" encoding="UTF-8"?>
<!DOCTYPE svg PUBLIC "-//W3C//DTD SVG 1.1//EN" "http://www.w3.org/Graphics/SVG/1.1/DTD/svg11.dtd">
<!-- Creator: CorelDRAW -->
<svg xmlns="http://www.w3.org/2000/svg" xml:space="preserve" width="249.631mm" height="43.5665mm" version="1.1" style="shape-rendering:geometricPrecision; text-rendering:geometricPrecision; image-rendering:optimizeQuality; fill-rule:evenodd; clip-rule:evenodd"
viewBox="0 0 27581.23 4813.59"
 xmlns:xlink="http://www.w3.org/1999/xlink"
 xmlns:xodm="http://www.corel.com/coreldraw/odm/2003">
 <defs>
  <style type="text/css">
   <![CDATA[
    .str0 {stroke:#FEFEFE;stroke-width:110.49;stroke-miterlimit:22.9256}
    .fil1 {fill:none}
    .fil0 {fill:#FEFEFE}
   ]]>
  </style>
 </defs>
 <g id="Layer_x0020_1">
  <metadata id="CorelCorpID_0Corel-Layer"/>
  <g id="_1364681739072">
   <path class="fil0" d="M4281.92 4355.93l1212.51 2.35 -3.05 -1134.54 681.79 -0.4c44.59,138.03 651.52,1003.32 770.43,1130.91l1263.41 5.6c-160.73,-330.6 -789.14,-1064.69 -892.8,-1373.48 754.42,-226.77 1252.83,-1605.42 313.29,-2469.25 -663.88,-610.37 -2296.01,-431.8 -3329.67,-433.1l-15.91 4271.9zm1210.11 -2066.73c619.88,4.08 1418.44,105.64 1421,-619.67 2.6,-735.5 -792.84,-633.99 -1418.76,-632.19l-2.24 1251.86z"/>
   <path class="fil0" d="M8302.5 4361.41l1225.81 -3.12c337.2,-955.93 295.6,-829.99 689.42,-830.51l1442.51 8.87 341.62 819.29 1247.79 2.02 -1877.86 -4269.13 -1186.65 -5.7c-386.68,778.53 -1009.75,2271 -1412.78,3181.76 -123.08,278.13 -399.28,823.04 -469.86,1096.51zm1915.51 -1732.93l1078.63 9.17 -517.34 -1328.06 -561.29 1318.89z"/>
   <path class="fil0" d="M15794.29 3015.93c31.54,299.59 -50.84,393.38 -308.58,454.59 -812.39,192.96 -1579.48,-317.55 -1804.27,-372.22l-363.88 866.68c644.14,559.99 2791.23,782.09 3456.69,-181.9 223.18,-323.29 326.07,-829.68 122.32,-1230.4 -358.91,-705.85 -1289.11,-644.51 -2085.9,-954.29 -586.08,-227.86 -84.44,-905.94 1073.08,-567.67 223.82,65.41 396.59,176.47 587.92,223.25l344.96 -867.83c-483.74,-441.29 -2840.45,-756.98 -3342.36,524.98 -286.13,730.85 83.37,1284.59 582.17,1517.37 661.76,308.81 1167.56,191.43 1737.85,587.42z"/>
   <polygon class="fil0" points="-0,1045.1 1311.53,1045.1 1314.18,4356.09 2526.36,4357.35 2522.94,1042.21 3828.42,1042.7 3827.21,82.48 25.04,84.59 "/>
   <polygon class="fil0" points="23743.43,1195.35 25058.51,1203.77 25063.45,4513.06 26263.88,4515.23 26271.33,1205.88 27580.36,1196.62 27581.23,255.67 23757.65,237.67 "/>
   <path class="fil1 str0" d="M18895.06 4583.87c276.14,86.62 552.29,173.25 848.51,174.47 296.23,1.23 612.54,-82.95 928.84,-167.12"/>
   <path class="fil0" d="M20107.73 3193.38l21.27 0c29.26,0 53.18,23.92 53.18,53.18l0 598.26c0,29.26 -23.92,53.18 -53.18,53.18l-21.27 0c-29.26,0 -53.18,-23.92 -53.18,-53.18l0 -598.26c0,-29.26 23.92,-53.18 53.18,-53.18zm-1134.42 -390.84c-122.45,6.15 -225.35,12.1 -291.74,18.08l-9.04 -58.7 -1.1 -0.87 0.77 -1.31 -11.38 -73.98c195.29,-29.54 390.59,-59.08 579.47,-82.93l10.45 -272.55 1063.91 -6.47 7.88 254.91c201.64,27.38 384.39,71.54 567.15,115.7 0,38.26 0,76.54 0,114.8 -72.28,-8.22 -181.19,-16.31 -260.28,-23.01l0 1687.84 0.38 1.45 1233.1 -0.99 -3.15 -4277.7 -1221.26 -8.51 5.61 1607.91c-347.31,0 -1417.69,42.5 -1677.84,-23.72l1.27 -1585.93 -1227.68 -0.62 0.66 4290.46 1232.82 0.91 0 -1674.74zm401.58 -236.38c132.03,-10.37 264.08,-20.76 400.35,-20.76 136.28,0 276.78,10.39 417.3,20.76 -1.01,-38.07 -2,-76.16 -3.01,-114.23 -142.55,-7.39 -285.09,-14.79 -419.53,-15.29 -134.43,-0.5 -260.75,5.89 -387.07,12.29 -2.68,39.08 -5.36,78.16 -8.04,117.24zm68.1 627.22l21.27 0c29.26,0 53.18,23.92 53.18,53.18l0 598.26c0,29.26 -23.92,53.18 -53.18,53.18l-21.27 0c-29.26,0 -53.18,-23.92 -53.18,-53.18l0 -598.26c0,-29.26 23.92,-53.18 53.18,-53.18z"/>
   <rect class="fil0" x="22079.55" y="216.99" width="1239.68" height="4298.21"/>
  </g>
 </g>
</svg>
